<svg width="80" height="103" viewBox="0 0 80 103" fill="none" xmlns="http://www.w3.org/2000/svg">
<path fill-rule="evenodd" clip-rule="evenodd" d="M57.7778 63.0296V43.5346H79.798V78.9892C58.5439 84.1537 50.3267 81.6035 41.8478 78.9722C33.08 76.2511 24.0323 73.4432 0 78.9892V43.4336H24.2424L14.1414 57.272H30.101C31.2121 57.272 32.0202 56.3629 32.0202 55.3528V43.4336H48.0808L32.5253 64.7467H56.0606C56.9697 64.7467 57.7778 63.9386 57.7778 63.0296ZM38.3838 82.0195C37.9798 82.0195 37.6768 82.3225 37.6768 82.8275H37.7778V83.6356H39.1919L38.8889 84.4437H37.7778V87.979C37.7778 88.7871 37.3737 89.2922 36.5657 89.5952V84.4437H36.0606V83.6356H36.5657V82.8275C36.5657 81.6154 37.2727 81.1104 38.2828 81.1104C38.6869 81.1104 39.0909 81.2114 39.4949 81.4134L39.0909 82.2215C39.0097 82.1944 38.9358 82.1673 38.8671 82.1422C38.6796 82.0736 38.5317 82.0195 38.3838 82.0195ZM17.7778 82.8275C18.1818 82.8275 18.5859 82.4235 18.5859 82.0195C18.5859 81.5144 18.1818 81.2114 17.7778 81.2114C17.3737 81.2114 16.9697 81.6154 16.9697 82.0195C17.0707 82.4235 17.3737 82.8275 17.7778 82.8275ZM58.6869 91.9184C59.495 91.9184 60.101 91.3124 60.101 90.6053C60.101 89.7972 59.4949 89.2922 58.7879 89.2922C58.0808 89.2922 57.4747 89.8982 57.4747 90.6053C57.3737 91.3124 57.8788 91.9184 58.6869 91.9184ZM64.7475 101.211C64.6465 101.009 64.5454 100.807 64.5454 99.4942V92.3225C64.5454 90.9084 63.9394 90.1003 62.3232 89.4942H62.2222C62.2343 89.5906 62.2463 89.6842 62.2582 89.7764C62.3459 90.457 62.4242 91.065 62.4242 92.2215V100.201C62.4242 101.009 62.4242 102.828 64.4445 102.828C64.8758 102.828 65.1598 102.754 65.4852 102.669C65.5408 102.655 65.5976 102.64 65.6566 102.626L65.3535 101.413C65.1515 101.413 64.8485 101.312 64.7475 101.211ZM57.6768 102.626V95.9589C57.6768 94.6457 58.2828 93.8376 59.697 93.3326V102.626H57.6768ZM69.899 101.211C69.798 101.009 69.697 100.807 69.697 99.4942V92.2215C69.697 90.9083 69.0909 90.1003 67.5758 89.4942H67.4748L67.4893 89.6098L67.5107 89.7763C67.5984 90.457 67.6768 91.065 67.6768 92.2215V100.201C67.6768 101.009 67.6768 102.828 69.697 102.828C70.1283 102.828 70.4123 102.754 70.7377 102.669C70.7933 102.655 70.8501 102.64 70.9091 102.626L70.6061 101.413C70.303 101.413 70 101.312 69.899 101.211ZM52.4242 97.9791L53.9394 93.2316V93.1306H56.2626L52.8283 102.525H51.0101L48.3838 95.2518C47.8788 93.7366 48.7879 93.2316 49.697 92.9285L51.3131 97.9791C51.6162 98.9892 51.9192 100.1 51.9192 100.1C51.9192 100.1 52.1212 98.9892 52.4242 97.9791ZM26.8687 93.2316L25.9596 97.575C25.7576 98.6861 25.4545 100.1 25.4545 100.1H25.3535C25.3535 100.1 25.1515 98.9891 24.7475 97.474L23.7374 93.2316H21.7172L20.5051 97.575C20.202 98.8881 20 100.1 20 100.1H19.899C19.899 100.1 19.697 98.7871 19.3939 97.676L18.3838 93.1306C17.3737 93.3326 16.5657 93.9386 16.9697 95.4538L18.9899 102.625H20.9091L22.0202 98.3831C22.5253 96.6659 22.6263 95.7568 22.6263 95.7568C22.6263 95.7568 22.9293 97.1709 23.2323 98.2821L24.3434 102.625H26.2626L28.8889 93.2316H26.8687ZM35.6566 100.605V96.4639C35.6566 95.1508 35.4546 94.7467 34.6465 94.9487C34.0404 94.9487 33.2323 95.3528 32.6263 95.9588V102.727H30.6061V95.8578C30.6061 94.8477 30.6061 94.3427 30.303 93.6356L32.1212 93.1306C32.3232 93.5346 32.4242 93.9386 32.4242 94.4437C33.4343 93.5346 34.2424 93.1306 35.2525 93.1306C36.6667 93.1306 37.6768 94.0396 37.6768 95.7568V102.727C37.2727 102.727 35.6566 102.727 35.6566 100.605ZM15.5556 97.9791C15.5556 101.009 13.9394 102.828 11.4141 102.828C8.88889 102.828 7.27272 100.908 7.27272 97.9791C7.27272 94.9488 8.88889 93.0296 11.3131 93.0296C14.0404 93.0296 15.5556 95.0498 15.5556 97.9791ZM9.59596 97.8781C9.59596 100.605 10.303 101.413 11.5152 101.413C12.7273 101.413 13.3333 100.403 13.3333 98.0801C13.3333 95.4538 12.6263 94.6457 11.4141 94.6457C10.101 94.5447 9.59596 95.5548 9.59596 97.8781ZM39.596 101.817C40.7071 102.423 42.0202 102.828 43.1313 102.828C45.3535 102.828 46.8687 101.615 46.7677 99.8982C46.7677 98.7871 46.2626 97.777 44.3434 97.272L43.2323 96.9689C42.3232 96.7669 42.0202 96.4639 42.0202 95.8578C42.0202 95.1507 42.5253 94.6457 43.4343 94.6457C44.2424 94.6457 44.8485 94.8477 45.7576 95.3528L46.4646 93.9386C45.7576 93.5346 44.7475 93.1306 43.4343 93.1306C41.4141 93.1306 40 94.3427 40 96.0598C40 97.373 40.8081 98.2821 42.2222 98.5851L43.3333 98.7871C44.3434 98.9891 44.8485 99.3932 44.8485 100.1C44.8485 100.908 44.2424 101.413 43.3333 101.413C42.3232 101.413 41.1111 100.908 40.303 100.403L39.596 101.817ZM74.4444 98.4841V98.5851C74.4444 99.8983 74.9495 101.211 76.7677 101.211C77.6768 101.211 78.3838 100.908 79.0909 100.302L79.899 101.514C78.8889 102.323 77.7778 102.727 76.5657 102.727C73.9394 102.727 72.2222 100.807 72.2222 97.8781C72.2222 96.2619 72.5252 95.1508 73.4343 94.2417C74.1414 93.3326 75.1515 93.0296 76.2626 93.0296C77.1717 93.0296 78.0808 93.2316 78.7879 93.9387C79.596 94.6457 80 95.8579 80 97.9791V98.3831H74.4444V98.4841ZM76.2626 94.5447C75.1515 94.5447 74.4444 95.4538 74.4444 96.969H77.8788C77.8788 95.4538 77.2727 94.5447 76.2626 94.5447ZM0 91.7164H3.13131V100.504C3.13131 102.727 4.84848 102.727 5.25252 102.727V91.7164H8.48485L8.78788 89.8982H0V91.7164ZM32.7273 89.1912C34.2424 89.1912 35.1515 88.1811 35.1515 86.3629C35.1515 84.6457 34.2424 83.5346 32.7273 83.3326C31.2121 83.3326 30.303 84.4437 30.303 86.2619C30.303 88.0801 31.2121 89.1912 32.7273 89.1912ZM32.7273 88.4841C32.0202 88.4841 31.6162 87.9791 31.6162 86.3629C31.6162 84.9487 31.9192 84.4437 32.7273 84.5447C33.4343 84.5447 33.8384 85.0498 33.8384 86.5649C33.8384 87.878 33.4343 88.4841 32.7273 88.4841ZM17.2727 85.2518V89.1912H18.4849V83.7366C17.5758 83.9386 17.2727 84.4437 17.2727 85.2518ZM26.9697 83.6356L26.0606 86.6659C25.8586 87.373 25.6566 88.1811 25.6566 88.1811C25.6566 88.1811 25.4545 87.272 25.3535 86.9689L24.3434 83.6356C23.7374 83.8376 23.3333 84.4437 23.6364 85.3528L24.4444 87.575C24.5455 87.777 24.6465 88.0801 24.6465 88.2821C24.6706 88.3423 24.6932 88.4011 24.7151 88.4579C24.8769 88.8777 24.9977 89.1912 25.3535 89.1912C25.0505 90.2013 24.5455 90.6053 23.8384 90.8073L24.2424 91.6154C25.5556 91.4134 25.9596 90.7063 26.3636 89.3932L28.2828 83.7366H26.9697V83.6356ZM22.0202 88.3831C22.2222 88.3831 22.3232 88.3831 22.5253 88.2821L22.6263 88.9892C22.5569 89.0065 22.4906 89.0238 22.4262 89.0406L22.4262 89.0406C22.1153 89.1219 21.8499 89.1912 21.5152 89.1912C20.5051 89.1912 20.101 88.5851 20.101 87.777V84.3427H19.495V83.5346H20.101V83.4336C20.202 82.7265 20.505 82.2215 21.4141 81.9185C21.3131 82.3225 21.3131 83.0296 21.3131 83.5346H22.6263L22.3232 84.3427H21.3131V87.474C21.3131 88.1811 21.5152 88.3831 22.0202 88.3831ZM16.3636 88.5851L15.7576 87.777C15.3535 88.0801 14.9495 88.2821 14.4444 88.2821C13.7374 88.2821 13.1313 87.979 12.7273 87.171C12.5253 86.7669 12.4242 86.2619 12.4242 85.2518C12.4242 84.3427 12.5253 83.7366 12.8283 83.2316C13.1313 82.6255 13.7374 82.3225 14.3434 82.3225C14.8485 82.3225 15.2525 82.4235 15.6566 82.7265L16.2626 81.9184C15.8586 81.5144 15.1515 81.3124 14.3434 81.3124C13.1313 81.3124 12.1212 81.9184 11.5152 83.0296C11.2121 83.6356 11.0101 84.4437 11.0101 85.3528C11.0101 86.4639 11.3131 87.373 11.9192 88.0801C12.5253 88.7871 13.3333 89.1912 14.3434 89.1912C15.1515 89.2922 15.7576 89.0902 16.3636 88.5851Z" fill="#005386"/>
<path d="M77.8788 18.5859C76.9697 18.1818 76.3636 17.8788 75.2525 17.5758C74.1414 17.2727 73.5354 16.7677 73.0303 15.9596C72.5253 16.0606 72.0202 15.9596 71.4141 15.9596C70.8081 15.9596 71.0101 15.5556 69.0909 15.2525C67.1717 14.9495 67.0707 12.9293 66.6667 11.7172C66.2626 10.505 65.2525 8.48485 64.4444 7.07071C63.6364 5.65657 63.4343 5.65657 62.2222 5.35354C60.9091 5.05051 60.303 4.9495 59.899 4.14142C59.4949 3.33334 59.1919 2.12121 58.1818 1.0101C58.2828 0 56.4646 0 54.0404 0C51.5151 0.10101 49.2929 0.707071 47.5758 1.0101C45.9596 1.31313 40.8081 3.33334 38.5859 3.9394C36.3636 4.64647 31.7172 6.46465 26.1616 7.67677C20.6061 8.88889 18.6869 10 16.8687 10.7071C16.0606 10.6061 14.4444 10.8081 12.6263 10.404C10.8081 10 8.28283 11.2121 5.35354 11.7172C3.83839 11.8182 0 13.7374 0 13.7374V40.8081H8.28282V32.6263H19.2929V35.3535H22.0202V38.0808H28.2828L32.0202 33.0303V40.8081H42.4242V31.3131H41.6162C39.697 31.3131 39.1919 32.3232 39.1919 33.8384C39.1919 34.4444 39.3939 35.0505 39.798 35.5556C38.6869 34.9495 37.7778 33.7374 37.7778 32.4242C37.7778 30.9091 38.6869 29.697 40.101 29.1919C39.697 29.0909 39.2929 28.9899 38.8889 28.9899C36.5657 28.9899 34.6465 30.9091 34.6465 33.2323C34.6465 33.4343 34.6465 33.6364 34.6465 33.8384C34.3434 33.1313 34.0404 32.2222 34.0404 31.4141C34.0404 28.4848 36.4646 26.0606 39.3939 26.0606C40.101 26.0606 40.8081 26.1616 41.4141 26.4647C40.404 25.4546 39.0909 24.8485 37.5758 24.8485C36.4646 24.8485 35.4545 25.2525 34.6465 25.7576C35.5556 24.0404 37.2727 22.9293 39.3939 22.9293C41.0101 22.9293 42.3232 23.6364 43.3333 24.7475C44.3434 23.6364 45.7576 22.9293 47.2727 22.9293C49.2929 22.9293 51.1111 24.0404 52.0202 25.7576C51.2121 25.1515 50.202 24.8485 49.0909 24.8485C47.5758 24.8485 46.2626 25.4546 45.2525 26.4647C45.8586 26.1616 46.5657 26.0606 47.2727 26.0606C50.202 26.0606 52.6263 28.4848 52.6263 31.4141C52.6263 32.2222 52.4242 33.1313 52.0202 33.8384C52.0202 33.6364 52.0202 33.4343 52.0202 33.2323C52.0202 30.9091 50.101 28.9899 47.7778 28.9899C47.3737 28.9899 46.9697 29.0909 46.5657 29.1919C47.8788 29.697 48.8889 30.9091 48.8889 32.4242C48.8889 33.7374 47.9798 34.9495 46.8687 35.5556C47.2727 35.0505 47.4747 34.4444 47.4747 33.8384C47.4747 32.3232 46.9697 31.3131 45.0505 31.3131H44.1414V40.8081H49.899L57.5758 30.303V40.8081H60.303V36.7677H71.3131V40.8081H79.596V19.0909C78.9899 18.7879 78.4848 18.8889 77.8788 18.5859Z" fill="#ECB51E"/>
</svg>
